<svg width="103" height="37" viewBox="0 0 103 37" fill="none" xmlns="http://www.w3.org/2000/svg">
<rect width="103" height="37" rx="18.5" fill="#59F97C"/>
<path d="M31.5049 18.25V18.9531C31.5049 19.9199 31.3789 20.7871 31.127 21.5547C30.875 22.3223 30.5146 22.9756 30.0459 23.5146C29.583 24.0537 29.0264 24.4668 28.376 24.7539C27.7256 25.0352 27.0049 25.1758 26.2139 25.1758C25.4287 25.1758 24.7109 25.0352 24.0605 24.7539C23.416 24.4668 22.8564 24.0537 22.3818 23.5146C21.9072 22.9756 21.5381 22.3223 21.2744 21.5547C21.0166 20.7871 20.8877 19.9199 20.8877 18.9531V18.25C20.8877 17.2832 21.0166 16.4189 21.2744 15.6572C21.5322 14.8896 21.8955 14.2363 22.3643 13.6973C22.8389 13.1523 23.3984 12.7393 24.043 12.458C24.6934 12.1709 25.4111 12.0273 26.1963 12.0273C26.9873 12.0273 27.708 12.1709 28.3584 12.458C29.0088 12.7393 29.5684 13.1523 30.0371 13.6973C30.5059 14.2363 30.8662 14.8896 31.1182 15.6572C31.376 16.4189 31.5049 17.2832 31.5049 18.25ZM29.2988 18.9531V18.2324C29.2988 17.5176 29.2285 16.8877 29.0879 16.3428C28.9531 15.792 28.751 15.332 28.4814 14.9629C28.2178 14.5879 27.8926 14.3066 27.5059 14.1191C27.1191 13.9258 26.6826 13.8291 26.1963 13.8291C25.71 13.8291 25.2764 13.9258 24.8955 14.1191C24.5146 14.3066 24.1895 14.5879 23.9199 14.9629C23.6562 15.332 23.4541 15.792 23.3135 16.3428C23.1729 16.8877 23.1025 17.5176 23.1025 18.2324V18.9531C23.1025 19.668 23.1729 20.3008 23.3135 20.8516C23.4541 21.4023 23.6592 21.8682 23.9287 22.249C24.2041 22.624 24.5322 22.9082 24.9131 23.1016C25.2939 23.2891 25.7275 23.3828 26.2139 23.3828C26.7061 23.3828 27.1426 23.2891 27.5234 23.1016C27.9043 22.9082 28.2266 22.624 28.4902 22.249C28.7539 21.8682 28.9531 21.4023 29.0879 20.8516C29.2285 20.3008 29.2988 19.668 29.2988 18.9531ZM43.8623 12.2031V25H41.6562L35.917 15.833V25H33.7109V12.2031H35.917L41.6738 21.3877V12.2031H43.8623ZM54.5059 23.251V25H48.0811V23.251H54.5059ZM48.6963 12.2031V25H46.4902V12.2031H48.6963ZM58.5664 12.2031V25H56.3604V12.2031H58.5664ZM71.46 12.2031V25H69.2539L63.5146 15.833V25H61.3086V12.2031H63.5146L69.2715 21.3877V12.2031H71.46ZM82.4639 23.251V25H75.6699V23.251H82.4639ZM76.2939 12.2031V25H74.0879V12.2031H76.2939ZM81.5762 17.5469V19.2695H75.6699V17.5469H81.5762ZM82.4199 12.2031V13.9609H75.6699V12.2031H82.4199Z" fill="#2B2B2B"/>
</svg>
