<svg width="137" height="37" viewBox="0 0 137 37" fill="none" xmlns="http://www.w3.org/2000/svg">
<rect width="137" height="37" rx="18.5" fill="#EDC407"/>
<path d="M22.9795 12.2031L25.6953 16.8701L28.4111 12.2031H30.9512L27.084 18.54L31.0479 25H28.4814L25.6953 20.2451L22.9092 25H20.334L24.3066 18.54L20.4307 12.2031H22.9795ZM35.0293 12.2031V25H32.8232V12.2031H35.0293ZM42.7725 12.2031V25H40.584V12.2031H42.7725ZM46.7891 12.2031V13.9609H36.6025V12.2031H46.7891ZM58.707 15.4902V17.1777H54.0137V15.4902H58.707ZM54.5146 15.4902V25H52.3965V15.4902H54.5146ZM60.3682 15.4902V25H58.2412V15.4902H60.3682ZM64.7363 17.3184V28.6562H62.6182V15.4902H64.5693L64.7363 17.3184ZM70.9326 20.1572V20.3418C70.9326 21.0332 70.8506 21.6748 70.6865 22.2666C70.5283 22.8525 70.291 23.3652 69.9746 23.8047C69.6641 24.2383 69.2803 24.5752 68.8232 24.8154C68.3662 25.0557 67.8389 25.1758 67.2412 25.1758C66.6494 25.1758 66.1309 25.0674 65.6855 24.8506C65.2461 24.6279 64.874 24.3145 64.5693 23.9102C64.2646 23.5059 64.0186 23.0312 63.8311 22.4863C63.6494 21.9355 63.5205 21.332 63.4443 20.6758V19.9639C63.5205 19.2666 63.6494 18.6338 63.8311 18.0654C64.0186 17.4971 64.2646 17.0078 64.5693 16.5977C64.874 16.1875 65.2461 15.8711 65.6855 15.6484C66.125 15.4258 66.6377 15.3145 67.2236 15.3145C67.8213 15.3145 68.3516 15.4316 68.8145 15.666C69.2773 15.8945 69.667 16.2227 69.9834 16.6504C70.2998 17.0723 70.5371 17.582 70.6953 18.1797C70.8535 18.7715 70.9326 19.4307 70.9326 20.1572ZM68.8145 20.3418V20.1572C68.8145 19.7178 68.7734 19.3105 68.6914 18.9355C68.6094 18.5547 68.4805 18.2207 68.3047 17.9336C68.1289 17.6465 67.9033 17.4238 67.6279 17.2656C67.3584 17.1016 67.0332 17.0195 66.6523 17.0195C66.2773 17.0195 65.9551 17.084 65.6855 17.2129C65.416 17.3359 65.1904 17.5088 65.0088 17.7314C64.8271 17.9541 64.6865 18.2148 64.5869 18.5137C64.4873 18.8066 64.417 19.126 64.376 19.4717V21.1768C64.4463 21.5986 64.5664 21.9854 64.7363 22.3369C64.9062 22.6885 65.1465 22.9697 65.457 23.1807C65.7734 23.3857 66.1777 23.4883 66.6699 23.4883C67.0508 23.4883 67.376 23.4062 67.6455 23.2422C67.915 23.0781 68.1348 22.8525 68.3047 22.5654C68.4805 22.2725 68.6094 21.9355 68.6914 21.5547C68.7734 21.1738 68.8145 20.7695 68.8145 20.3418ZM72.3301 20.3506V20.1484C72.3301 19.4629 72.4297 18.8271 72.6289 18.2412C72.8281 17.6494 73.1152 17.1367 73.4902 16.7031C73.8711 16.2637 74.334 15.9238 74.8789 15.6836C75.4297 15.4375 76.0508 15.3145 76.7422 15.3145C77.4395 15.3145 78.0605 15.4375 78.6055 15.6836C79.1562 15.9238 79.6221 16.2637 80.0029 16.7031C80.3838 17.1367 80.6738 17.6494 80.873 18.2412C81.0723 18.8271 81.1719 19.4629 81.1719 20.1484V20.3506C81.1719 21.0361 81.0723 21.6719 80.873 22.2578C80.6738 22.8438 80.3838 23.3564 80.0029 23.7959C79.6221 24.2295 79.1592 24.5693 78.6143 24.8154C78.0693 25.0557 77.4512 25.1758 76.7598 25.1758C76.0625 25.1758 75.4385 25.0557 74.8877 24.8154C74.3428 24.5693 73.8799 24.2295 73.499 23.7959C73.1182 23.3564 72.8281 22.8438 72.6289 22.2578C72.4297 21.6719 72.3301 21.0361 72.3301 20.3506ZM74.4482 20.1484V20.3506C74.4482 20.7783 74.4922 21.1826 74.5801 21.5635C74.668 21.9443 74.8057 22.2783 74.9932 22.5654C75.1807 22.8525 75.4209 23.0781 75.7139 23.2422C76.0068 23.4062 76.3555 23.4883 76.7598 23.4883C77.1523 23.4883 77.4922 23.4062 77.7793 23.2422C78.0723 23.0781 78.3125 22.8525 78.5 22.5654C78.6875 22.2783 78.8252 21.9443 78.9131 21.5635C79.0068 21.1826 79.0537 20.7783 79.0537 20.3506V20.1484C79.0537 19.7266 79.0068 19.3281 78.9131 18.9531C78.8252 18.5723 78.6846 18.2354 78.4912 17.9424C78.3037 17.6494 78.0635 17.4209 77.7705 17.2568C77.4834 17.0869 77.1406 17.002 76.7422 17.002C76.3438 17.002 75.998 17.0869 75.7051 17.2568C75.418 17.4209 75.1807 17.6494 74.9932 17.9424C74.8057 18.2354 74.668 18.5723 74.5801 18.9531C74.4922 19.3281 74.4482 19.7266 74.4482 20.1484ZM84.0371 15.4902H86.1553L86.0498 18.8389C86.0205 19.8115 85.9092 20.6465 85.7158 21.3438C85.5225 22.041 85.2705 22.6299 84.96 23.1104C84.6494 23.585 84.2979 23.9746 83.9053 24.2793C83.5186 24.584 83.1113 24.8242 82.6836 25H82.0596V23.3301L82.3584 23.3125C82.6104 23.043 82.8271 22.7734 83.0088 22.5039C83.1963 22.2285 83.3545 21.9268 83.4834 21.5986C83.6123 21.2646 83.7119 20.875 83.7822 20.4297C83.8584 19.9844 83.9082 19.4541 83.9316 18.8389L84.0371 15.4902ZM84.5996 15.4902H90.6289V25H88.5195V17.2832H84.5996V15.4902ZM81.5762 23.3125H91.9297V27.8301H89.8115V25H83.7207V27.8301H81.5674L81.5762 23.3125ZM98.8027 23.0928V18.5576C98.8027 18.2178 98.7412 17.9248 98.6182 17.6787C98.4951 17.4326 98.3076 17.2422 98.0557 17.1074C97.8096 16.9727 97.499 16.9053 97.124 16.9053C96.7783 16.9053 96.4795 16.9639 96.2275 17.0811C95.9756 17.1982 95.7793 17.3564 95.6387 17.5557C95.498 17.7549 95.4277 17.9805 95.4277 18.2324H93.3184C93.3184 17.8574 93.4092 17.4941 93.5908 17.1426C93.7725 16.791 94.0361 16.4775 94.3818 16.2021C94.7275 15.9268 95.1406 15.71 95.6211 15.5518C96.1016 15.3936 96.6406 15.3145 97.2383 15.3145C97.9531 15.3145 98.5859 15.4346 99.1367 15.6748C99.6934 15.915 100.13 16.2783 100.446 16.7646C100.769 17.2451 100.93 17.8486 100.93 18.5752V22.8027C100.93 23.2363 100.959 23.626 101.018 23.9717C101.082 24.3115 101.173 24.6074 101.29 24.8594V25H99.1191C99.0195 24.7715 98.9404 24.4814 98.8818 24.1299C98.8291 23.7725 98.8027 23.4268 98.8027 23.0928ZM99.1104 19.2168L99.1279 20.5264H97.6074C97.2148 20.5264 96.8691 20.5645 96.5703 20.6406C96.2715 20.7109 96.0225 20.8164 95.8232 20.957C95.624 21.0977 95.4746 21.2676 95.375 21.4668C95.2754 21.666 95.2256 21.8916 95.2256 22.1436C95.2256 22.3955 95.2842 22.627 95.4014 22.8379C95.5186 23.043 95.6885 23.2041 95.9111 23.3213C96.1396 23.4385 96.415 23.4971 96.7373 23.4971C97.1709 23.4971 97.5488 23.4092 97.8711 23.2334C98.1992 23.0518 98.457 22.832 98.6445 22.5742C98.832 22.3105 98.9316 22.0615 98.9434 21.8271L99.6289 22.7676C99.5586 23.0078 99.4385 23.2656 99.2686 23.541C99.0986 23.8164 98.876 24.0801 98.6006 24.332C98.3311 24.5781 98.0059 24.7803 97.625 24.9385C97.25 25.0967 96.8164 25.1758 96.3242 25.1758C95.7031 25.1758 95.1494 25.0527 94.6631 24.8066C94.1768 24.5547 93.7959 24.2178 93.5205 23.7959C93.2451 23.3682 93.1074 22.8848 93.1074 22.3457C93.1074 21.8418 93.2012 21.3965 93.3887 21.0098C93.582 20.6172 93.8633 20.2891 94.2324 20.0254C94.6074 19.7617 95.0645 19.5625 95.6035 19.4277C96.1426 19.2871 96.7578 19.2168 97.4492 19.2168H99.1104ZM106.3 21.1592L102.503 15.4902H105.104L107.319 19.2344H109.174L108.901 21.1592H106.3ZM107.372 20.8516L104.938 25H102.336L105.781 19.6475L107.372 20.8516ZM110.448 15.4902V25H108.339V15.4902H110.448ZM116.311 15.4902L112.514 21.1592H109.903L109.622 19.2344H111.485L113.7 15.4902H116.311ZM113.867 25L111.424 20.8516L113.067 19.6475L116.495 25H113.867Z" fill="#2B2B2A"/>
</svg>
