<svg width="51" height="41" viewBox="0 0 51 41" fill="none" xmlns="http://www.w3.org/2000/svg">
<path d="M50.199 14.4085C50.1936 12.7919 49.5494 11.2438 48.4065 10.1009C47.2636 8.95807 45.715 8.31339 44.099 8.30847H34.799C33.7222 5.86207 31.9584 3.78173 29.7218 2.31876C27.4847 0.855788 24.8717 0.0740737 22.199 0.0683594H15.999C15.4687 0.0683594 14.9597 0.279079 14.5847 0.654074C14.2097 1.02907 13.999 1.53801 13.999 2.06836V25.7084C13.999 26.2387 14.2097 26.7472 14.5847 27.1222C14.9597 27.4976 15.4687 27.7083 15.999 27.7083H22.199C24.6847 27.7079 27.1245 27.0369 29.2611 25.7664C31.3976 24.4954 33.1517 22.6722 34.3392 20.4882H35.999V35.1282V35.1278C35.999 36.9144 36.9521 38.5648 38.499 39.4582C40.0459 40.3515 41.9521 40.3515 43.499 39.4582C45.0459 38.5649 45.999 36.9144 45.999 35.1278V20.1678C46.8972 19.8749 47.7177 19.383 48.399 18.7276C49.5588 17.591 50.2084 16.032 50.199 14.4079V14.4085ZM22.199 23.7085H17.999V4.06847H22.199C24.8723 3.94749 27.4784 4.92517 29.4128 6.7743C31.3472 8.62299 32.4414 11.1828 32.4414 13.8586C32.4414 16.5345 31.3472 19.094 29.4128 20.943C27.4784 22.7917 24.8723 23.7693 22.199 23.6484V23.7085ZM41.0996 36.0685C40.5473 36.0685 40.0996 35.6207 40.0996 35.0685V20.489H42.0996V35.129V35.1286C42.0679 35.6576 41.629 36.0697 41.0996 36.0688V36.0685ZM45.5795 15.8685C45.1607 16.2841 44.5893 16.5082 43.9996 16.4886H35.7594C35.9107 15.6435 35.991 14.7867 35.9995 13.9283C35.9969 13.3873 35.9634 12.8462 35.8995 12.3087H44.0995C44.6647 12.2797 45.216 12.4913 45.6164 12.8917C46.0164 13.2922 46.2285 13.8431 46.1995 14.4086C46.2031 14.96 45.9785 15.4881 45.5794 15.8684L45.5795 15.8685Z" fill="#2B2B2A"/>
<path d="M5.69894 20.5882L1.45871 24.828C1.08014 25.2039 0.867188 25.715 0.867188 26.2481C0.867188 26.7816 1.08014 27.2927 1.45871 27.6682C1.83461 28.0468 2.34576 28.2597 2.87882 28.2597C3.41231 28.2597 3.92346 28.0468 4.29894 27.6682L8.53917 23.428C9.04632 22.9208 9.24453 22.1816 9.05882 21.4882C8.8731 20.7953 8.33158 20.2538 7.6387 20.0685C6.94584 19.8828 6.20613 20.0806 5.69893 20.5882L5.69894 20.5882Z" fill="#2B2B2A"/>
<path d="M5.69939 7.66818C6.07484 8.04675 6.586 8.2597 7.1195 8.2597C7.65254 8.2597 8.1637 8.04675 8.53962 7.66818C8.91819 7.29273 9.13114 6.78158 9.13114 6.24807C9.13114 5.71503 8.91819 5.20387 8.53962 4.82795L4.29939 0.588184C3.79225 0.0805951 3.05254 -0.117177 2.35962 0.0685373C1.66676 0.253806 1.12522 0.795326 0.939508 1.48819C0.753794 2.1815 0.95201 2.92077 1.45915 3.42797L5.69939 7.66818Z" fill="#2B2B2A"/>
<path d="M7.99998 12.0684H1.99997C1.28524 12.0684 0.625001 12.4496 0.267858 13.0684C-0.0892858 13.6871 -0.0892858 14.4496 0.267858 15.0684C0.625001 15.6871 1.28527 16.0684 1.99997 16.0684H7.99998C8.71472 16.0684 9.37496 15.6871 9.7321 15.0684C10.0892 14.4496 10.0892 13.6871 9.7321 13.0684C9.37496 12.4496 8.71469 12.0684 7.99998 12.0684Z" fill="#2B2B2A"/>
</svg>
